<?xml version="1.0" standalone="no"?>
<!DOCTYPE svg PUBLIC "-//W3C//DTD SVG 20010904//EN"
 "http://www.w3.org/TR/2001/REC-SVG-20010904/DTD/svg10.dtd">
<svg version="1.0" xmlns="http://www.w3.org/2000/svg"
 width="400.000000pt" height="400.000000pt" viewBox="0 0 400.000000 400.000000"
 preserveAspectRatio="xMidYMid meet">
<metadata>
Created by potrace 1.14, written by Peter Selinger 2001-2017
</metadata>
<g transform="translate(0.000000,400.000000) scale(0.100000,-0.100000)"
fill="#000000" stroke="none">
<path d="M1766 3739 c-27 -4 -52 -13 -56 -20 -4 -6 -32 -15 -61 -20 -29 -5
-57 -13 -63 -19 -8 -8 -6 -9 9 -4 13 5 7 -5 -17 -29 -20 -20 -57 -78 -81 -129
-25 -51 -55 -102 -67 -113 -11 -11 -28 -28 -38 -37 -11 -13 -32 -18 -66 -18
-30 0 -56 -6 -65 -15 -9 -8 -31 -27 -49 -41 -30 -24 -96 -144 -132 -239 -23
-59 -40 -176 -40 -267 0 -149 42 -282 112 -355 17 -17 28 -36 24 -41 -3 -5 1
-15 9 -22 8 -7 15 -18 15 -25 0 -8 4 -15 10 -17 12 -4 40 -108 40 -151 0 -41
19 -74 21 -37 1 14 2 36 4 50 1 14 5 80 9 147 7 129 19 179 64 253 31 53 54
137 39 147 -6 3 -8 44 -5 102 4 72 10 104 24 126 34 53 57 75 88 84 17 5 57
19 88 30 31 11 86 22 122 23 36 1 66 6 66 11 0 5 7 3 17 -4 9 -8 18 -13 20
-11 1 1 4 2 6 1 12 -4 49 -9 83 -12 22 -2 45 -7 50 -10 15 -9 243 -40 284 -38
19 0 49 -5 65 -13 17 -7 47 -22 68 -31 21 -10 48 -31 60 -47 11 -15 26 -28 32
-28 15 0 55 -46 48 -54 -4 -3 1 -6 11 -6 13 0 16 -5 11 -22 -5 -18 -4 -20 4
-8 6 8 11 13 11 10 1 -3 3 -24 5 -46 2 -23 8 -50 14 -60 14 -25 54 -165 48
-170 -2 -2 -18 3 -35 12 -28 14 -43 14 -153 -1 -116 -15 -219 -46 -219 -67 0
-5 5 -6 10 -3 6 3 10 -1 10 -11 0 -14 7 -16 43 -10 144 23 189 26 247 20 35
-3 74 -12 85 -20 10 -8 31 -14 46 -14 14 0 34 -9 44 -20 10 -11 27 -20 37 -20
10 0 21 -7 24 -15 4 -8 10 -12 15 -9 5 3 9 -7 10 -23 1 -47 27 -240 28 -210 1
23 5 27 20 22 17 -5 19 -2 14 33 -3 22 0 56 6 75 13 39 76 117 95 117 12 0 17
7 73 100 26 41 34 65 32 95 -1 22 1 65 5 95 5 39 3 67 -8 98 -8 23 -15 46 -15
50 2 65 -25 137 -78 208 -13 17 -30 52 -39 76 -8 25 -30 63 -48 84 -18 22 -36
50 -40 64 -15 58 -269 223 -439 285 -56 21 -133 55 -172 75 -78 42 -139 62
-265 85 -92 16 -101 17 -174 4z m-56 -59 c-20 -13 -43 -13 -35 0 3 6 16 10 28
10 18 0 19 -2 7 -10z m-80 -24 c0 -2 -8 -10 -17 -17 -16 -13 -17 -12 -4 4 13
16 21 21 21 13z m-434 -414 c-17 -16 -18 -16 -5 5 7 12 15 20 18 17 3 -2 -3
-12 -13 -22z m1474 -685 c0 -10 -4 -15 -10 -12 -5 3 -10 18 -10 33 0 21 2 24
10 12 5 -8 10 -23 10 -33z"/>
<path d="M1456 2542 c-44 -18 -66 -42 -66 -69 0 -29 27 -31 84 -4 37 16 53 17
156 9 129 -11 170 -11 179 -3 12 12 -16 38 -60 55 -58 23 -248 31 -293 12z"/>
<path d="M2295 2390 c-55 -26 -74 -43 -74 -66 1 -10 -2 -29 -6 -40 -6 -19 -3
-22 19 -20 19 1 26 6 26 22 0 12 7 27 15 34 17 14 17 15 33 -23 11 -26 11 -27
-16 -22 -30 6 -16 -1 40 -20 21 -7 35 -9 32 -4 -3 5 2 10 10 10 9 1 22 2 29 3
6 0 20 18 30 38 16 33 21 36 38 28 24 -14 24 -27 -1 -42 -30 -19 -25 -23 28
-22 66 2 66 2 91 25 l23 22 -37 33 c-34 30 -140 72 -152 61 -2 -3 8 -8 23 -11
15 -4 37 -14 48 -23 20 -15 20 -15 1 -8 -36 14 -118 27 -137 22 -20 -6 -25 8
-5 16 8 4 7 6 -3 6 -8 0 -33 -8 -55 -19z m25 -7 c-8 -3 -27 -17 -42 -31 -15
-14 -30 -23 -33 -20 -9 9 55 58 73 57 14 0 14 -2 2 -6z m80 -43 c0 -5 -4 -10
-10 -10 -5 0 -10 5 -10 10 0 6 5 10 10 10 6 0 10 -4 10 -10z"/>
<path d="M1534 2369 c-56 -21 -100 -61 -89 -79 9 -14 67 -40 90 -40 10 0 15
10 15 30 0 19 7 33 19 40 27 14 31 13 31 -7 0 -9 10 -32 23 -50 16 -25 29 -33
52 -33 23 0 27 -3 15 -10 -12 -8 -10 -10 10 -9 14 0 34 4 45 9 18 8 18 9 -5
10 l-25 1 25 14 c21 12 22 14 6 15 -12 0 -16 5 -12 16 3 9 6 26 6 40 0 17 4
22 15 17 18 -6 47 -58 38 -67 -4 -3 3 -6 15 -6 25 0 26 5 12 47 -16 44 -61 74
-102 68 -27 -5 -30 -4 -13 5 18 9 17 10 -5 5 -14 -3 -38 -8 -54 -10 -15 -2
-37 -7 -47 -10 -10 -3 -29 -8 -41 -11 -36 -10 -14 6 29 21 21 8 29 14 18 14
-11 0 -43 -9 -71 -20z m186 -43 c0 -3 -4 -8 -10 -11 -5 -3 -10 -1 -10 4 0 6 5
11 10 11 6 0 10 -2 10 -4z"/>
<path d="M2927 2366 c-3 -8 3 -22 15 -32 19 -18 20 -18 16 10 -3 32 -22 45
-31 22z"/>
<path d="M1147 2334 c-21 -21 -1 -204 22 -204 4 0 6 46 6 102 0 94 -8 122 -28
102z"/>
<path d="M2260 2238 c0 -20 35 -37 75 -37 22 0 33 3 25 6 -8 3 -17 9 -20 12
-10 14 -80 29 -80 19z"/>
<path d="M1221 2070 c0 -26 7 -43 29 -64 20 -20 28 -36 24 -48 -3 -10 -1 -18
5 -18 17 0 23 20 11 35 -6 7 -12 37 -13 67 0 29 -3 45 -5 36 -5 -23 -10 -23
-33 5 l-18 22 0 -35z"/>
<path d="M1171 2044 c-1 -68 28 -124 64 -124 6 0 0 8 -11 18 -21 16 -26 30
-43 117 l-8 40 -2 -51z"/>
<path d="M1833 1880 c-3 -11 -10 -20 -15 -20 -5 0 -6 -4 -3 -10 9 -15 45 -12
51 5 4 9 19 15 41 15 19 0 32 -4 28 -9 -11 -19 34 -32 87 -26 69 8 85 24 19
19 -41 -3 -54 0 -79 21 -40 33 -121 36 -129 5z"/>
<path d="M2098 1893 c-43 -11 -12 -23 60 -23 70 1 75 2 58 15 -19 14 -80 18
-118 8z"/>
<path d="M1306 1855 c-3 -8 -1 -15 4 -15 6 0 10 7 10 15 0 8 -2 15 -4 15 -2 0
-6 -7 -10 -15z"/>
<path d="M2205 1850 c-16 -7 -17 -9 -3 -9 9 -1 20 4 23 9 7 11 7 11 -20 0z"/>
<path d="M1717 1722 c-5 -7 -13 -10 -18 -7 -5 3 -18 -9 -29 -27 -18 -29 -18
-34 -5 -44 8 -6 15 -18 15 -27 0 -24 39 -42 46 -22 9 21 21 19 47 -9 13 -14
38 -26 59 -29 35 -5 36 -4 26 13 -7 11 -10 21 -8 23 3 2 81 7 173 11 l169 7
-7 -30 c-6 -27 -4 -31 15 -31 22 0 95 34 104 49 4 5 23 5 48 -2 38 -9 43 -8
60 12 27 34 24 79 -7 93 -14 6 -25 15 -25 20 0 4 -4 8 -10 8 -5 0 -10 -5 -10
-11 0 -38 -65 -49 -158 -28 -27 7 -62 8 -78 4 -28 -7 -28 -7 -6 -16 35 -13 26
-29 -17 -29 -22 0 -43 -4 -46 -10 -12 -20 -26 -9 -23 17 3 25 0 28 -42 35 -30
6 -76 3 -139 -7 -100 -17 -117 -13 -123 28 -2 16 -5 18 -11 9z m253 -82 c0 -5
-7 -10 -15 -10 -8 0 -15 5 -15 10 0 6 7 10 15 10 8 0 15 -4 15 -10z"/>
<path d="M2601 1536 c-11 -19 -18 -23 -27 -15 -9 8 -11 5 -7 -10 4 -14 -1 -23
-13 -28 -10 -4 -29 -18 -41 -32 -65 -73 -173 -175 -213 -201 -33 -21 -62 -31
-106 -34 -34 -3 -68 -8 -76 -11 -8 -3 -26 -1 -41 4 -18 7 -28 7 -33 -1 -5 -7
-37 -8 -103 -4 -107 8 -159 28 -220 84 -20 19 -47 44 -61 55 -14 12 -45 48
-68 79 -26 36 -47 55 -56 52 -8 -3 -21 5 -30 18 -9 12 -16 19 -16 14 0 -5 -10
2 -21 15 l-21 24 7 -25 c7 -25 27 -53 55 -78 10 -9 10 -11 2 -7 -10 5 -13 2
-10 -11 2 -11 9 -18 16 -17 6 2 9 -4 6 -12 -4 -9 0 -15 10 -15 9 0 16 -6 16
-13 0 -7 13 -28 28 -47 16 -19 34 -45 41 -57 6 -13 18 -23 26 -23 7 0 17 -9
20 -20 3 -11 15 -20 26 -20 12 0 19 -7 19 -20 0 -21 39 -43 73 -42 13 1 17 -4
13 -15 -5 -11 -2 -14 9 -9 9 3 18 -1 21 -9 10 -25 21 -17 17 13 -3 25 -3 26 6
5 11 -25 27 -32 17 -8 -7 19 3 19 44 1 21 -9 28 -15 19 -19 -9 -4 -7 -6 6 -7
l20 -1 -20 -9 c-14 -6 -2 -8 40 -8 58 0 115 15 221 56 28 11 57 20 65 19 32
-2 79 16 84 33 3 9 17 23 30 30 14 7 25 18 25 24 0 6 22 33 49 59 26 26 54 60
62 75 7 15 24 38 36 51 13 13 23 30 23 37 0 8 4 14 8 14 13 0 45 65 41 79 -3
8 -10 2 -18 -13z"/>
<path d="M2015 1509 c-16 -4 -41 -6 -55 -2 -20 4 -23 3 -13 -7 14 -15 127 -4
118 11 -7 10 -10 10 -50 -2z"/>
<path d="M2085 1500 c3 -5 13 -10 21 -10 8 0 14 5 14 10 0 6 -9 10 -21 10 -11
0 -17 -4 -14 -10z"/>
<path d="M2604 1227 c-1 -18 -5 -58 -9 -90 -4 -41 -3 -57 5 -52 12 7 7 -53
-11 -120 -20 -74 -93 -208 -167 -304 -40 -53 -94 -128 -120 -168 -31 -48 -57
-76 -77 -84 -16 -7 -34 -17 -40 -23 -35 -39 -211 -59 -282 -32 -21 8 -63 20
-93 27 -72 16 -152 51 -177 78 -12 13 -23 35 -27 51 -3 16 -21 46 -39 67 -38
42 -81 123 -128 240 -30 75 -31 82 -25 183 3 58 8 129 12 159 8 67 0 65 -63
-13 -92 -114 -179 -176 -408 -289 -208 -103 -413 -185 -615 -247 -58 -17 -142
-52 -187 -76 -44 -24 -90 -44 -101 -44 -53 0 -52 6 -52 -251 l0 -239 2000 0
2000 0 0 295 c0 258 -2 295 -15 295 -9 0 -42 14 -75 30 -33 17 -99 43 -148 59
-48 15 -105 37 -127 48 -22 12 -76 30 -120 42 -44 12 -109 34 -145 48 -36 14
-119 45 -185 69 -66 25 -143 59 -170 78 -69 45 -122 72 -172 85 -54 15 -143
88 -177 145 -15 25 -34 50 -44 55 -14 8 -17 4 -18 -22z"/>
<path d="M1820 1051 c0 -5 7 -12 16 -15 14 -5 15 -4 4 9 -14 17 -20 19 -20 6z"/>
<path d="M1928 1053 c7 -3 16 -2 19 1 4 3 -2 6 -13 5 -11 0 -14 -3 -6 -6z"/>
<path d="M1860 1010 c0 -5 6 -10 14 -10 8 0 16 -6 19 -12 2 -7 8 -10 12 -5 5
4 0 14 -11 22 -23 17 -34 19 -34 5z"/>
<path d="M1920 980 c0 -5 7 -10 15 -10 8 0 15 5 15 10 0 6 -7 10 -15 10 -8 0
-15 -4 -15 -10z"/>
<path d="M1988 953 c7 -3 16 -2 19 1 4 3 -2 6 -13 5 -11 0 -14 -3 -6 -6z"/>
<path d="M2078 953 c7 -3 16 -2 19 1 4 3 -2 6 -13 5 -11 0 -14 -3 -6 -6z"/>
</g>
</svg>
